<?xml version="1.0" encoding="UTF-8"?>
<svg version="1.1" xmlns="http://www.w3.org/2000/svg" width="155" height="157">
<path d="M0 0 C51.15 0 102.3 0 155 0 C155 51.81 155 103.62 155 157 C103.85 157 52.7 157 0 157 C0 105.19 0 53.38 0 0 Z " fill="#20A2F8" transform="translate(0,0)"/>
<path d="M0 0 C1.98 0 3.96 0 6 0 C6 37.95 6 75.9 6 115 C7.98 115 9.96 115 12 115 C12 85.63 12 56.26 12 26 C26.52 26 41.04 26 56 26 C56 36.56 56 47.12 56 58 C50.06 58 44.12 58 38 58 C38 53.71 38 49.42 38 45 C35.69 45 33.38 45 31 45 C31 51.6 31 58.2 31 65 C41.56 65 52.12 65 63 65 C63 52.13 63 39.26 63 26 C73.89 26 84.78 26 96 26 C96 32.6 96 39.2 96 46 C91.71 46 87.42 46 83 46 C83 47.98 83 49.96 83 52 C89.27 52 95.54 52 102 52 C102 41.11 102 30.22 102 19 C72.3 19 42.6 19 12 19 C12 12.73 12 6.46 12 0 C52.26 0 92.52 0 134 0 C134 1.98 134 3.96 134 6 C95.72 6 57.44 6 18 6 C18 8.31 18 10.62 18 13 C47.7 13 77.4 13 108 13 C108 27.85 108 42.7 108 58 C97.77 58 87.54 58 77 58 C77 52.06 77 46.12 77 40 C81.29 40 85.58 40 90 40 C90 37.36 90 34.72 90 32 C83.07 32 76.14 32 69 32 C69 42.89 69 53.78 69 65 C81.87 65 94.74 65 108 65 C108 75.23 108 85.46 108 96 C102.06 96 96.12 96 90 96 C90 91.71 90 87.42 90 83 C87.36 83 84.72 83 82 83 C82 89.6 82 96.2 82 103 C92.89 103 103.78 103 115 103 C115 73.3 115 43.6 115 13 C121.6 13 128.2 13 135 13 C135 53.59 135 94.18 135 136 C132.69 136 130.38 136 128 136 C128 97.39 128 58.78 128 19 C125.69 19 123.38 19 121 19 C121 48.37 121 77.74 121 108 C106.15 108 91.3 108 76 108 C76 97.77 76 87.54 76 77 C82.6 77 89.2 77 96 77 C96 81.29 96 85.58 96 90 C97.98 90 99.96 90 102 90 C102 83.73 102 77.46 102 71 C91.11 71 80.22 71 69 71 C69 83.54 69 96.08 69 109 C58.77 109 48.54 109 38 109 C38 102.73 38 96.46 38 90 C42.29 90 46.58 90 51 90 C51 87.69 51 85.38 51 83 C44.4 83 37.8 83 31 83 C31 93.56 31 104.12 31 115 C60.37 115 89.74 115 120 115 C120 121.6 120 128.2 120 135 C80.07 135 40.14 135 -1 135 C-1 133.02 -1 131.04 -1 129 C36.95 129 74.9 129 114 129 C114 126.69 114 124.38 114 122 C112.89974991 122.00222061 111.79949982 122.00444122 110.66590881 122.00672913 C100.3207718 122.02695967 89.97563877 122.04197171 79.63048649 122.05181217 C74.31134787 122.05704122 68.99222516 122.06413927 63.6730957 122.07543945 C58.54436015 122.08626755 53.41563994 122.09227667 48.28689384 122.09487724 C46.32558386 122.09673163 44.36427476 122.10035251 42.40297127 122.10573006 C39.66584553 122.11293946 36.92878403 122.11399099 34.19165039 122.11352539 C32.96274582 122.1189183 32.96274582 122.1189183 31.70901489 122.12442017 C26.11405216 122.11405216 26.11405216 122.11405216 25 121 C24.9072167 119.61839885 24.88252957 118.23211962 24.88647461 116.84741211 C24.88655014 115.96657455 24.88662567 115.085737 24.88670349 114.1782074 C24.89444542 112.74227989 24.89444542 112.74227989 24.90234375 111.27734375 C24.9037587 110.30213272 24.90517365 109.32692169 24.90663147 108.32215881 C24.91224867 105.19390857 24.92480407 102.06572877 24.9375 98.9375 C24.94251278 96.82226666 24.94707607 94.70703219 24.95117188 92.59179688 C24.96137469 87.39448199 24.98094669 82.19732025 25 77 C35.56 77 46.12 77 57 77 C57 82.94 57 88.88 57 95 C52.38 95 47.76 95 43 95 C43 97.64 43 100.28 43 103 C49.6 103 56.2 103 63 103 C63 92.44 63 81.88 63 71 C50.79 71 38.58 71 26 71 C26 60.44 26 49.88 26 39 C31.94 39 37.88 39 44 39 C44 43.29 44 47.58 44 52 C45.98 52 47.96 52 50 52 C50 45.4 50 38.8 50 32 C39.44 32 28.88 32 18 32 C18 61.37 18 90.74 18 121 C12.06 121 6.12 121 0 121 C0 81.07 0 41.14 0 0 Z " fill="#F5FBFE" transform="translate(11,12)"/>
<path d="M0 0 C51.15 0 102.3 0 155 0 C155 51.81 155 103.62 155 157 C103.85 157 52.7 157 0 157 C0 105.19 0 53.38 0 0 Z M5 5 C5 53.18 5 101.36 5 151 C42.95 151 80.9 151 120 151 C120.33 150.34 120.66 149.68 121 149 C84.37 149 47.74 149 10 149 C10 148.34 10 147.68 10 147 C49.93 147 89.86 147 131 147 C131 140.4 131 133.8 131 127 C101.63 127 72.26 127 42 127 C42 116.44 42 105.88 42 95 C48.6 95 55.2 95 62 95 C62 97.31 62 99.62 62 102 C57.71 102 53.42 102 49 102 C49 108.27 49 114.54 49 121 C59.23 121 69.46 121 80 121 C80 108.46 80 95.92 80 83 C90.89 83 101.78 83 113 83 C113 89.27 113 95.54 113 102 C111.02 102 109.04 102 107 102 C107 97.71 107 93.42 107 89 C100.4 89 93.8 89 87 89 C87 99.23 87 109.46 87 120 C101.85 120 116.7 120 132 120 C132 90.63 132 61.26 132 31 C134.31 31 136.62 31 139 31 C139 69.61 139 108.22 139 148 C140.65 148.33 142.3 148.66 144 149 C144 149.66 144 150.32 144 151 C145.65 151 147.3 151 149 151 C149 103.48 149 55.96 149 7 C148.34 7 147.68 7 147 7 C147.66 6.34 148.32 5.68 149 5 C101.48 5 53.96 5 5 5 Z " fill="#349CE3" transform="translate(0,0)"/>
<path d="M0 0 C51.15 0 102.3 0 155 0 C155 51.81 155 103.62 155 157 C103.85 157 52.7 157 0 157 C0 105.19 0 53.38 0 0 Z M4 4 C4 53.17 4 102.34 4 153 C52.51 153 101.02 153 151 153 C151 103.83 151 54.66 151 4 C102.49 4 53.98 4 4 4 Z " fill="#FFFFFF" transform="translate(0,0)"/>
<path d="M0 0 C10.89 0 21.78 0 33 0 C33 6.27 33 12.54 33 19 C31.02 19 29.04 19 27 19 C27 14.71 27 10.42 27 6 C20.4 6 13.8 6 7 6 C7 16.23 7 26.46 7 37 C10.34640625 36.97679687 13.6928125 36.95359375 17.140625 36.9296875 C20.38069276 36.91409123 23.62075634 36.90194632 26.86083984 36.89013672 C29.11313752 36.88007747 31.36542214 36.86642854 33.61767578 36.84912109 C36.85452498 36.82486969 40.09120155 36.8135161 43.328125 36.8046875 C44.83925873 36.78920364 44.83925873 36.78920364 46.38092041 36.77340698 C47.32159363 36.77325592 48.26226685 36.77310486 49.23144531 36.77294922 C50.05751282 36.768508 50.88358032 36.76406677 51.73468018 36.75949097 C54.22197764 37.02356737 55.84933375 37.75429493 58 39 C58.0582462 42.72910066 58.09367917 46.45808364 58.125 50.1875 C58.14175781 51.24259766 58.15851563 52.29769531 58.17578125 53.38476562 C58.18222656 54.40634766 58.18867188 55.42792969 58.1953125 56.48046875 C58.20578613 57.41785889 58.21625977 58.35524902 58.22705078 59.32104492 C57.98166713 62.21630812 57.20521619 64.37062697 56 67 C54.68 67 53.36 67 52 67 C52 59.41 52 51.82 52 44 C22.3 44 -7.4 44 -38 44 C-38 33.44 -38 22.88 -38 12 C-31.4 12 -24.8 12 -18 12 C-18 14.31 -18 16.62 -18 19 C-22.29 19 -26.58 19 -31 19 C-31 25.27 -31 31.54 -31 38 C-20.77 38 -10.54 38 0 38 C0 25.46 0 12.92 0 0 Z " fill="#28A4F6" transform="translate(80,83)"/>
<path d="M0 0 C1.98 0 3.96 0 6 0 C6 28.71 6 57.42 6 87 C2 86 2 86 0 85 C0 56.95 0 28.9 0 0 Z " fill="#1BA2FE" transform="translate(133,33)"/>
<path d="M0 0 C29.7 0 59.4 0 90 0 C89.67 0.66 89.34 1.32 89 2 C88.01 1.505 88.01 1.505 87 1 C87.495 2.98 87.495 2.98 88 5 C58.96 5 29.92 5 0 5 C0 3.35 0 1.7 0 0 Z " fill="#1DA2FA" transform="translate(30,19)"/>
<path d="M0 0 C6.93 0 13.86 0 21 0 C21 2.64 21 5.28 21 8 C16.71 8 12.42 8 8 8 C8 13.94 8 19.88 8 26 C17.9 26 27.8 26 38 26 C38 26.33 38 26.66 38 27 C22.16 27.495 22.16 27.495 6 28 C5.67 26.68 5.34 25.36 5 24 C4.01 24 3.02 24 2 24 C2 26.31 2 28.62 2 31 C14.21 31 26.42 31 39 31 C39 31.66 39 32.32 39 33 C26.13 33 13.26 33 0 33 C0 22.11 0 11.22 0 0 Z " fill="#24A0F2" transform="translate(80,44)"/>
<path d="M0 0 C0.33 0 0.66 0 1 0 C1 8.25 1 16.5 1 25 C1.66 25 2.32 25 3 25 C3.33 23.68 3.66 22.36 4 21 C4 48.06 4 75.12 4 103 C2.68 103 1.36 103 0 103 C0 69.01 0 35.02 0 0 Z " fill="#1DA2FA" transform="translate(18,23)"/>
<path d="M0 0 C0.33 0 0.66 0 1 0 C1 39.93 1 79.86 1 121 C6.94 121 12.88 121 19 121 C19 91.63 19 62.26 19 32 C19.66 32.33 20.32 32.66 21 33 C21.02312228 44.58688402 21.0409145 56.17376259 21.05181217 67.76066494 C21.05704125 73.14033762 21.06413935 78.51999458 21.07543945 83.8996582 C21.08626745 89.08674843 21.09227665 94.27382349 21.09487724 99.46092415 C21.09673165 101.4445628 21.10035256 103.42820058 21.10573006 105.41183281 C21.11293932 108.18009136 21.11399099 110.94828638 21.11352539 113.71655273 C21.11712067 114.54517319 21.12071594 115.37379364 21.12442017 116.2275238 C21.11405216 121.88594784 21.11405216 121.88594784 20 123 C13.4 123 6.8 123 0 123 C0 82.41 0 41.82 0 0 Z " fill="#53ABE4" transform="translate(10,12)"/>
<path d="M0 0 C10.89 0 21.78 0 33 0 C33 6.27 33 12.54 33 19 C31.02 19 29.04 19 27 19 C27 14.71 27 10.42 27 6 C20.4 6 13.8 6 7 6 C7 16.23 7 26.46 7 37 C6.67 37 6.34 37 6 37 C5.950623 32.47934572 5.91429177 27.95884783 5.89013672 23.43798828 C5.88006882 21.89954902 5.86641354 20.36112893 5.84912109 18.82275391 C5.82490683 16.61355867 5.81352509 14.40461605 5.8046875 12.1953125 C5.79436493 11.50567413 5.78404236 10.81603577 5.77340698 10.10549927 C5.77300522 8.40199094 5.87808974 6.69914057 6 5 C6.66 4.34 7.32 3.68 8 3 C6.33388095 2.957279 4.66617115 2.95936168 3 3 C1.02170928 4.97829072 1.74496068 8.82327027 1.68359375 11.53515625 C1.66281265 12.28840683 1.64203156 13.04165741 1.62062073 13.81773376 C1.55504575 16.2325599 1.49620379 18.64749798 1.4375 21.0625 C1.3943223 22.69597529 1.35070827 24.3294391 1.30664062 25.96289062 C1.19935638 29.97514464 1.09811179 33.98751164 1 38 C0.67 38 0.34 38 0 38 C0 25.46 0 12.92 0 0 Z " fill="#36A3EB" transform="translate(80,83)"/>
<path d="M0 0 C0.33 0.66 0.66 1.32 1 2 C1.66 2 2.32 2 3 2 C3 7.94 3 13.88 3 20 C2.67 20 2.34 20 2 20 C1.67 16.04 1.34 12.08 1 8 C0.34 8 -0.32 8 -1 8 C-1.33 43.64 -1.66 79.28 -2 116 C-0.68 116 0.64 116 2 116 C2 86.96 2 57.92 2 28 C2.33 28 2.66 28 3 28 C3 57.37 3 86.74 3 117 C1.02 117 -0.96 117 -3 117 C-3 79.05 -3 41.1 -3 2 C-5.31 2 -7.62 2 -10 2 C-10 1.67 -10 1.34 -10 1 C-2.25 0.875 -2.25 0.875 0 2 C0 1.34 0 0.68 0 0 Z " fill="#2C9FE5" transform="translate(20,10)"/>
<path d="M0 0 C29.7 0 59.4 0 90 0 C90 10.89 90 21.78 90 33 C83.73 33 77.46 33 71 33 C71 31.02 71 29.04 71 27 C75.29 27 79.58 27 84 27 C84 27.33 84 27.66 84 28 C80.04 28 76.08 28 72 28 C72 29.32 72 30.64 72 32 C77.61 32 83.22 32 89 32 C88.67 22.1 88.34 12.2 88 2 C58.96 2 29.92 2 0 2 C0 1.34 0 0.68 0 0 Z " fill="#359BE1" transform="translate(23,31)"/>
<path d="M0 0 C2.64 0 5.28 0 8 0 C8 10.56 8 21.12 8 32 C1.4 32 -5.2 32 -12 32 C-12 29.36 -12 26.72 -12 24 C-7.38 24 -2.76 24 2 24 C2 18.06 2 12.12 2 6 C-7.9 6 -17.8 6 -28 6 C-28 5.67 -28 5.34 -28 5 C-20.788381 4.20813595 -13.62458741 3.89240249 -6.375 3.875 C-5.18414795 3.86823242 -5.18414795 3.86823242 -3.96923828 3.86132812 C1.75234664 3.87617332 1.75234664 3.87617332 4 5 C4.02718316 7.85423192 4.04692705 10.70820015 4.0625 13.5625 C4.07087891 14.36236328 4.07925781 15.16222656 4.08789062 15.98632812 C4.10742247 20.77163104 3.80437018 25.28145051 3 30 C3.99 30 4.98 30 6 30 C6.33 20.43 6.66 10.86 7 1 C4.69 1 2.38 1 0 1 C0 0.67 0 0.34 0 0 Z " fill="#37A4EC" transform="translate(66,83)"/>
<path d="M0 0 C4.50235595 -0.02472359 9.00467236 -0.04287119 13.50708008 -0.05493164 C15.0386626 -0.0599596 16.57024033 -0.06678284 18.10180664 -0.07543945 C20.30356022 -0.08757229 22.50525033 -0.09324367 24.70703125 -0.09765625 C25.39150833 -0.10281754 26.07598541 -0.10797882 26.78120422 -0.11329651 C29.80906242 -0.1136536 32.10150142 0.03383381 35 1 C36.27861615 3.55723229 36.11336609 5.36737102 36.09765625 8.2265625 C36.09443359 9.2578125 36.09121094 10.2890625 36.08789062 11.3515625 C36.07532227 12.97191406 36.07532227 12.97191406 36.0625 14.625 C36.05798828 15.71296875 36.05347656 16.8009375 36.04882812 17.921875 C36.0370179 20.61460662 36.01908205 23.30731009 36 26 C30.39 26 24.78 26 19 26 C19 24.68 19 23.36 19 22 C22.96 22 26.92 22 31 22 C31 15.07 31 8.14 31 1 C20.77 1 10.54 1 0 1 C0 0.67 0 0.34 0 0 Z " fill="#2CA3F3" transform="translate(76,37)"/>
<path d="M0 0 C10.23 0 20.46 0 31 0 C31 6.6 31 13.2 31 20 C29.02 20 27.04 20 25 20 C25 15.71 25 11.42 25 7 C19.06 7 13.12 7 7 7 C7 6.34 7 5.68 7 5 C11.29 5 15.58 5 20 5 C20.33 4.01 20.66 3.02 21 2 C14.07 1.67 7.14 1.34 0 1 C0 0.67 0 0.34 0 0 Z " fill="#2DA4F2" transform="translate(30,44)"/>
<path d="M0 0 C6.93 0 13.86 0 21 0 C21 2.31 21 4.62 21 7 C20.67 7 20.34 7 20 7 C20 5.02 20 3.04 20 1 C14.39 1 8.78 1 3 1 C3.01160156 2.41152344 3.02320312 3.82304688 3.03515625 5.27734375 C3.0445429 7.16406117 3.05364216 9.05078003 3.0625 10.9375 C3.07087891 11.86369141 3.07925781 12.78988281 3.08789062 13.74414062 C3.09111328 14.66259766 3.09433594 15.58105469 3.09765625 16.52734375 C3.10289307 17.35999756 3.10812988 18.19265137 3.11352539 19.05053711 C2.95966273 23.04798822 2.4417715 27.02405646 2 31 C14.21 31 26.42 31 39 31 C39 31.66 39 32.32 39 33 C26.13 33 13.26 33 0 33 C0 22.11 0 11.22 0 0 Z " fill="#50AEED" transform="translate(80,44)"/>
<path d="M0 0 C0.33 0 0.66 0 1 0 C1 11.55 1 23.1 1 35 C-9.89 35 -20.78 35 -32 35 C-32 28.4 -32 21.8 -32 15 C-29.36 15 -26.72 15 -24 15 C-24 19.29 -24 23.58 -24 28 C-24.66 27.67 -25.32 27.34 -26 27 C-26 23.7 -26 20.4 -26 17 C-27.32 17 -28.64 17 -30 17 C-30 22.28 -30 27.56 -30 33 C-20.1 33 -10.2 33 0 33 C0 22.11 0 11.22 0 0 Z " fill="#4AA8E7" transform="translate(125,80)"/>
<path d="M0 0 C1.98 0.66 3.96 1.32 6 2 C6.0582462 5.72910066 6.09367917 9.45808364 6.125 13.1875 C6.14175781 14.24259766 6.15851563 15.29769531 6.17578125 16.38476562 C6.18222656 17.40634766 6.18867188 18.42792969 6.1953125 19.48046875 C6.20578613 20.41785889 6.21625977 21.35524902 6.22705078 22.32104492 C5.98166713 25.21630812 5.20521619 27.37062697 4 30 C2.68 30 1.36 30 0 30 C0.33 21.75 0.66 13.5 1 5 C0.01 4.67 -0.98 4.34 -2 4 C-2 3.34 -2 2.68 -2 2 C-1.34 2 -0.68 2 0 2 C0 1.34 0 0.68 0 0 Z " fill="#1AA3FC" transform="translate(132,120)"/>
<path d="M0 0 C1.32 0 2.64 0 4 0 C4.04898438 0.71027344 4.09796875 1.42054687 4.1484375 2.15234375 C4.22320312 3.07144531 4.29796875 3.99054688 4.375 4.9375 C4.44460937 5.85402344 4.51421875 6.77054687 4.5859375 7.71484375 C4.72257812 8.46894531 4.85921875 9.22304687 5 10 C7.29308963 11.14654482 8.79909656 11.19729117 11.3515625 11.31640625 C12.20234375 11.35830078 13.053125 11.40019531 13.9296875 11.44335938 C14.81914063 11.48267578 15.70859375 11.52199219 16.625 11.5625 C17.97078125 11.62727539 17.97078125 11.62727539 19.34375 11.69335938 C21.56234283 11.79956861 23.7810488 11.90161194 26 12 C24.703125 13.984375 24.703125 13.984375 22 16 C18.24363716 16.51822475 14.5329152 16.374817 10.75 16.25 C9.71875 16.23195313 8.6875 16.21390625 7.625 16.1953125 C5.0829355 16.14823723 2.54134933 16.07649546 0 16 C0 10.72 0 5.44 0 0 Z " fill="#1BA3FC" transform="translate(95,97)"/>
<path d="M0 0 C0.94875 0.04125 1.8975 0.0825 2.875 0.125 C1.885 1.61 1.885 1.61 0.875 3.125 C-0.33176929 9.20679756 -0.4421214 15.37976369 -0.6875 21.5625 C-0.73068359 22.58021484 -0.77386719 23.59792969 -0.81835938 24.64648438 C-0.92368582 27.13921028 -1.02581672 29.63202338 -1.125 32.125 C-3.105 32.62 -3.105 32.62 -5.125 33.125 C-5.17438149 28.74676083 -5.2107104 24.36866854 -5.23486328 19.99023438 C-5.24493043 18.5002968 -5.25858518 17.01037903 -5.27587891 15.52050781 C-5.30009653 13.38080972 -5.31147564 11.24137247 -5.3203125 9.1015625 C-5.33602295 7.16917725 -5.33602295 7.16917725 -5.35205078 5.19775391 C-5.03687324 0.93235123 -4.28041854 0.17121674 0 0 Z " fill="#1DA2FB" transform="translate(86.125,84.875)"/>
<path d="M0 0 C0.33 0 0.66 0 1 0 C1 12.87 1 25.74 1 39 C-9.56 39 -20.12 39 -31 39 C-31 32.4 -31 25.8 -31 19 C-30.67 19 -30.34 19 -30 19 C-29.67 24.94 -29.34 30.88 -29 37 C-19.43 37 -9.86 37 0 37 C0 24.79 0 12.58 0 0 Z " fill="#51ADEA" transform="translate(73,38)"/>
<path d="M0 0 C5.61 0 11.22 0 17 0 C17 1.98 17 3.96 17 6 C14.70839681 6.02692484 12.41670454 6.04636124 10.125 6.0625 C8.84882812 6.07410156 7.57265625 6.08570313 6.2578125 6.09765625 C3 6 3 6 1 5 C1 7.64 1 10.28 1 13 C0.01 13.495 0.01 13.495 -1 14 C-1.02705729 12.22925083 -1.04642195 10.45838289 -1.0625 8.6875 C-1.07410156 7.70136719 -1.08570312 6.71523438 -1.09765625 5.69921875 C-1 3 -1 3 0 0 Z " fill="#1BA3FC" transform="translate(83,45)"/>
<path d="M0 0 C2.31 0 4.62 0 7 0 C6.67 1.32 6.34 2.64 6 4 C7.08667969 3.98259766 7.08667969 3.98259766 8.1953125 3.96484375 C13.24783323 3.91768689 18.03378767 3.92622436 23 5 C23 5.33 23 5.66 23 6 C17.06 6 11.12 6 5 6 C5 24.15 5 42.3 5 61 C4.67 61 4.34 61 4 61 C3.99413376 60.31761765 3.98826752 59.63523529 3.98222351 58.93217468 C3.9183933 51.84326015 3.83400059 44.75480398 3.73754883 37.66625977 C3.70425128 35.01918574 3.67623458 32.37203989 3.65356445 29.72485352 C3.62010789 25.9243299 3.56779514 22.12446745 3.51171875 18.32421875 C3.50532883 17.13664474 3.4989389 15.94907074 3.49235535 14.72550964 C3.47256119 13.62459488 3.45276703 12.52368011 3.43237305 11.3894043 C3.42126999 10.41899704 3.41016693 9.44858978 3.39872742 8.44877625 C2.93045349 5.57288153 2.08837066 4.91495453 0 3 C0 2.01 0 1.02 0 0 Z " fill="#2B9FEA" transform="translate(121,19)"/>
<path d="M0 0 C2.97 0 5.94 0 9 0 C9 0.99 9 1.98 9 3 C7.68 3 6.36 3 5 3 C4.34 9.27 3.68 15.54 3 22 C2.01 22.33 1.02 22.66 0 23 C0 15.41 0 7.82 0 0 Z " fill="#1AA3FD" transform="translate(43,97)"/>
<path d="M0 0 C6.6 0 13.2 0 20 0 C20 1.98 20 3.96 20 6 C17.36 6 14.72 6 12 6 C12 4.68 12 3.36 12 2 C8.37 1.67 4.74 1.34 1 1 C1 10.9 1 20.8 1 31 C2.65 31 4.3 31 6 31 C6 31.33 6 31.66 6 32 C4.02 32 2.04 32 0 32 C0 21.44 0 10.88 0 0 Z " fill="#359BDE" transform="translate(42,95)"/>
<path d="M0 0 C0.33 0 0.66 0 1 0 C1 26.4 1 52.8 1 80 C0.34 79.67 -0.32 79.34 -1 79 C-1.6875 76.5 -1.6875 76.5 -2 74 C-1.505 73.505 -1.505 73.505 -1 73 C-0.8758378 70.73079775 -0.82196252 68.4577355 -0.79467773 66.18530273 C-0.78477814 65.47314606 -0.77487854 64.76098938 -0.76467896 64.0272522 C-0.73297788 61.66273372 -0.70827276 59.29819511 -0.68359375 56.93359375 C-0.66303164 55.29833948 -0.64203537 53.66309062 -0.62062073 52.02784729 C-0.56532328 47.71571214 -0.51594799 43.40352842 -0.46777344 39.09130859 C-0.41761428 34.69429176 -0.36189913 30.2973458 -0.30664062 25.90039062 C-0.19896527 17.26698693 -0.09754129 8.6335241 0 0 Z " fill="#23A1F0" transform="translate(138,36)"/>
<path d="M0 0 C4.52081966 -0.02917237 9.04161488 -0.0468568 13.5625 -0.0625 C14.83931641 -0.07087891 16.11613281 -0.07925781 17.43164062 -0.08789062 C19.29272461 -0.09272461 19.29272461 -0.09272461 21.19140625 -0.09765625 C22.89598999 -0.10551147 22.89598999 -0.10551147 24.63500977 -0.11352539 C28.15208567 0.00513095 31.52771145 0.44219489 35 1 C34.67 2.98 34.34 4.96 34 7 C33.505 6.01 33.505 6.01 33 5 C32.01 5 31.02 5 30 5 C30 4.01 30 3.02 30 2 C29.06317383 2.00785522 29.06317383 2.00785522 28.10742188 2.01586914 C25.23829176 2.03684076 22.36917785 2.04972376 19.5 2.0625 C18.02660156 2.07506836 18.02660156 2.07506836 16.5234375 2.08789062 C10.91325243 2.10659124 5.54849101 1.838879 0 1 C0 0.67 0 0.34 0 0 Z " fill="#259FF3" transform="translate(38,83)"/>
<path d="M0 0 C5.94 0 11.88 0 18 0 C18 0.33 18 0.66 18 1 C15.69 1 13.38 1 11 1 C11 2.32 11 3.64 11 5 C13.64 5 16.28 5 19 5 C19 5.33 19 5.66 19 6 C14.71 6 10.42 6 6 6 C6 12.27 6 18.54 6 25 C5.67 25 5.34 25 5 25 C5 18.07 5 11.14 5 4 C6.32 4 7.64 4 9 4 C9 3.01 9 2.02 9 1 C6.03 1 3.06 1 0 1 C0 0.67 0 0.34 0 0 Z " fill="#55B3F2" transform="translate(43,96)"/>
<path d="M0 0 C0.33 0.66 0.66 1.32 1 2 C1.66 2 2.32 2 3 2 C3 7.94 3 13.88 3 20 C2.67 20 2.34 20 2 20 C1.67 16.04 1.34 12.08 1 8 C0.34 8 -0.32 8 -1 8 C-1.33 8.66 -1.66 9.32 -2 10 C-2.33 7.69 -2.66 5.38 -3 3 C-5.31 2.67 -7.62 2.34 -10 2 C-10 1.67 -10 1.34 -10 1 C-2.25 0.875 -2.25 0.875 0 2 C0 1.34 0 0.68 0 0 Z " fill="#269FF2" transform="translate(20,10)"/>
<path d="M0 0 C5.61 0.33 11.22 0.66 17 1 C17 1.33 17 1.66 17 2 C12.71 2 8.42 2 4 2 C4 7.94 4 13.88 4 20 C3.67 20 3.34 20 3 20 C2.67 16.04 2.34 12.08 2 8 C1.34 8 0.68 8 0 8 C0 5.36 0 2.72 0 0 Z " fill="#51B4F5" transform="translate(84,50)"/>
<path d="M0 0 C1.32 0 2.64 0 4 0 C4.33 5.28 4.66 10.56 5 16 C3.68 16 2.36 16 1 16 C0.83191581 13.89594609 0.66558052 11.79175242 0.5 9.6875 C0.4071875 8.51574219 0.314375 7.34398438 0.21875 6.13671875 C0.07635011 4.094806 0 2.0468721 0 0 Z " fill="#1DA2FB" transform="translate(107,85)"/>
<path d="M0 0 C2.31 0 4.62 0 7 0 C7 1.32 7 2.64 7 4 C4.69 4 2.38 4 0 4 C0 2.68 0 1.36 0 0 Z " fill="#1FA1F9" transform="translate(54,97)"/>
<path d="M0 0 C0.66 0 1.32 0 2 0 C2 2.31 2 4.62 2 7 C1.34 6.34 0.68 5.68 0 5 C-0.33 5.66 -0.66 6.32 -1 7 C-1.66 7 -2.32 7 -3 7 C-1.125 2.25 -1.125 2.25 0 0 Z " fill="#38ACFD" transform="translate(8,140)"/>
</svg>
